<?xml version="1.0" encoding="UTF-8"?>
<svg id="Layer_1" data-name="Layer 1" xmlns="http://www.w3.org/2000/svg" viewBox="0 0 42 46">
  <defs>
    <style>
      .cls-1 {
        fill: #fff;
      }

      .cls-2 {
        fill: #f9e077;
      }
    </style>
  </defs>
  <path class="cls-1" d="m8.19,23.55c-.32-2.23-2.1-4-4.36-4.29.32,2.23,2.1,4,4.36,4.29Z"/>
  <path class="cls-1" d="m12.59,27.89c-.32-2.23-2.1-4-4.36-4.29.32,2.23,2.1,4,4.36,4.29Z"/>
  <path class="cls-1" d="m8.26,23.55c2.23-.32,4-2.1,4.29-4.36-2.23.32-4,2.1-4.29,4.36Z"/>
  <path class="cls-1" d="m3.92,27.95c2.23-.32,4-2.1,4.29-4.36-2.23.32-4,2.1-4.29,4.36Z"/>
  <path class="cls-1" d="m16.94,23.5c-.32-2.23-2.1-4-4.36-4.29.32,2.23,2.1,4,4.36,4.29Z"/>
  <path class="cls-2" d="m21.34,27.84c-.32-2.23-2.1-4-4.36-4.29.32,2.23,2.1,4,4.36,4.29Z"/>
  <path class="cls-2" d="m17.01,23.5c2.23-.32,4-2.1,4.29-4.36-2.23.32-4,2.1-4.29,4.36Z"/>
  <path class="cls-1" d="m12.66,27.9c2.23-.32,4-2.1,4.29-4.36-2.23.32-4,2.1-4.29,4.36Z"/>
  <path class="cls-2" d="m25.67,23.43c-.32-2.23-2.1-4-4.36-4.29.32,2.23,2.1,4,4.36,4.29Z"/>
  <path class="cls-1" d="m30.07,27.77c-.32-2.23-2.1-4-4.36-4.29.32,2.23,2.1,4,4.36,4.29Z"/>
  <path class="cls-1" d="m25.74,23.43c2.23-.32,4-2.1,4.29-4.36-2.23.32-4,2.1-4.29,4.36Z"/>
  <path class="cls-2" d="m21.4,27.83c2.23-.32,4-2.1,4.29-4.36-2.23.32-4,2.1-4.29,4.36Z"/>
  <path class="cls-1" d="m34.76,23.38c-.32-2.23-2.1-4-4.36-4.29.32,2.23,2.1,4,4.36,4.29Z"/>
  <path class="cls-1" d="m39.16,27.73c-.32-2.23-2.1-4-4.36-4.29.32,2.23,2.1,4,4.36,4.29Z"/>
  <path class="cls-1" d="m34.83,23.38c2.23-.32,4-2.1,4.29-4.36-2.23.32-4,2.1-4.29,4.36Z"/>
  <path class="cls-1" d="m30.49,27.79c2.23-.32,4-2.1,4.29-4.36-2.23.32-4,2.1-4.29,4.36Z"/>
  <path class="cls-1" d="m16.94,14.76c-.32-2.23-2.1-4-4.36-4.29.32,2.23,2.1,4,4.36,4.29Z"/>
  <path class="cls-1" d="m21.34,19.1c-.32-2.23-2.1-4-4.36-4.29.32,2.23,2.1,4,4.36,4.29Z"/>
  <path class="cls-1" d="m17.01,14.76c2.23-.32,4-2.1,4.29-4.36-2.23.32-4,2.1-4.29,4.36Z"/>
  <path class="cls-1" d="m12.66,19.16c2.23-.32,4-2.1,4.29-4.36-2.23.32-4,2.1-4.29,4.36Z"/>
  <path class="cls-1" d="m25.67,14.69c-.32-2.23-2.1-4-4.36-4.29.32,2.23,2.1,4,4.36,4.29Z"/>
  <path class="cls-1" d="m30.07,19.04c-.32-2.23-2.1-4-4.36-4.29.32,2.23,2.1,4,4.36,4.29Z"/>
  <path class="cls-1" d="m25.74,14.69c2.23-.32,4-2.1,4.29-4.36-2.23.32-4,2.1-4.29,4.36Z"/>
  <path class="cls-1" d="m21.4,19.1c2.23-.32,4-2.1,4.29-4.36-2.23.32-4,2.1-4.29,4.36Z"/>
  <path class="cls-1" d="m21.34,10.37c-.32-2.23-2.1-4-4.36-4.29.32,2.23,2.1,4,4.36,4.29Z"/>
  <path class="cls-1" d="m21.4,10.36c2.23-.32,4-2.1,4.29-4.36-2.23.32-4,2.1-4.29,4.36Z"/>
  <path class="cls-1" d="m16.94,32.24c-.32,2.23-2.1,4-4.36,4.29.32-2.23,2.1-4,4.36-4.29Z"/>
  <path class="cls-1" d="m21.34,27.9c-.32,2.23-2.1,4-4.36,4.29.32-2.23,2.1-4,4.36-4.29Z"/>
  <path class="cls-1" d="m17.01,32.24c2.23.32,4,2.1,4.29,4.36-2.23-.32-4-2.1-4.29-4.36Z"/>
  <path class="cls-1" d="m12.66,27.84c2.23.32,4,2.1,4.29,4.36-2.23-.32-4-2.1-4.29-4.36Z"/>
  <path class="cls-1" d="m25.67,32.31c-.32,2.23-2.1,4-4.36,4.29.32-2.23,2.1-4,4.36-4.29Z"/>
  <path class="cls-1" d="m30.07,27.96c-.32,2.23-2.1,4-4.36,4.29.32-2.23,2.1-4,4.36-4.29Z"/>
  <path class="cls-1" d="m25.74,32.31c2.23.32,4,2.1,4.29,4.36-2.23-.32-4-2.1-4.29-4.36Z"/>
  <path class="cls-1" d="m21.4,27.9c2.23.32,4,2.1,4.29,4.36-2.23-.32-4-2.1-4.29-4.36Z"/>
  <path class="cls-1" d="m21.34,36.63c-.32,2.23-2.1,4-4.36,4.29.32-2.23,2.1-4,4.36-4.29Z"/>
  <path class="cls-1" d="m21.4,36.64c2.23.32,4,2.1,4.29,4.36-2.23-.32-4-2.1-4.29-4.36Z"/>
</svg>