<?xml version="1.0" encoding="UTF-8"?>
<svg id="Layer_1" data-name="Layer 1" xmlns="http://www.w3.org/2000/svg" viewBox="0 0 145 57">
  <defs>
    <style>
      .cls-1 {
        fill: #fff;
      }
    </style>
  </defs>
  <g>
    <path class="cls-1" d="m10.73,26.62v-.79c.48,0,.85-.13,1.11-.38.26-.26.47-.61.64-1.06.17-.45.36-.97.59-1.56l4.95-13.49h.58l5.36,13.68c.13.34.27.77.43,1.3s.22.98.19,1.35c.27-.02.54-.03.82-.05s.55-.03.82-.05v1.06h-5.51v-.79c.61-.02,1.01-.15,1.2-.41s.27-.56.22-.91c-.05-.35-.13-.67-.24-.96l-.84-2.26-6.25.14-.84,2.57c-.11.38-.21.69-.3.91-.09.22-.19.47-.3.75.32-.02.64-.03.95-.05.31-.02.62-.03.93-.05v1.06h-4.5Zm4.43-6.23h5.55l-1.71-4.59c-.18-.5-.36-.99-.54-1.48-.18-.49-.37-.98-.54-1.48h-.05c-.16.45-.33.9-.49,1.35-.17.45-.34.91-.52,1.37l-1.71,4.83Z"/>
    <path class="cls-1" d="m27.75,11.58c0-.26,0-.5.01-.73s.03-.51.06-.83c-.29.02-.57.03-.85.05-.28.02-.56.03-.85.05v-1.01c.71,0,1.25-.03,1.65-.1.39-.06.69-.14.89-.24.2-.1.36-.2.47-.31h.7v7.17c.45-.45.98-.8,1.6-1.05.62-.25,1.29-.37,2.03-.37,1.03,0,1.95.25,2.78.75.83.5,1.48,1.2,1.96,2.12s.72,2,.72,3.25c0,1.36-.3,2.55-.89,3.55-.59,1-1.36,1.78-2.31,2.32s-1.96.82-3.05.82c-.54,0-1.14-.1-1.79-.3s-1.23-.59-1.74-1.17l-.58,1.08h-.84l.05-15.03Zm2.07,11.25c0,.85.14,1.5.41,1.96.27.46.63.77,1.06.95s.89.26,1.37.26c.77,0,1.43-.22,2-.65s1-1.03,1.31-1.79c.31-.76.47-1.65.47-2.66,0-1.09-.14-2.05-.41-2.87-.27-.83-.68-1.48-1.23-1.95-.55-.47-1.23-.71-2.07-.71-.53,0-1.05.12-1.58.37s-.97.58-1.33,1v6.08Z"/>
    <path class="cls-1" d="m46.95,27c-1.12,0-2.14-.26-3.05-.78s-1.64-1.24-2.18-2.16-.81-1.98-.81-3.16c0-1.27.26-2.4.79-3.42.53-1.01,1.25-1.81,2.17-2.39s1.94-.88,3.08-.88,2.14.27,3.05.81c.91.54,1.64,1.26,2.19,2.18.54.91.82,1.96.82,3.13,0,1.23-.27,2.36-.81,3.38-.54,1.02-1.26,1.82-2.18,2.42-.91.59-1.94.89-3.08.89Zm.19-.96c.85,0,1.52-.24,2.02-.72.5-.48.85-1.11,1.07-1.88.22-.77.33-1.58.33-2.43,0-.72-.07-1.43-.2-2.13-.14-.7-.35-1.33-.64-1.9s-.66-1.02-1.12-1.36c-.46-.34-1.01-.51-1.65-.51-.83,0-1.52.24-2.04.72s-.92,1.11-1.17,1.88c-.25.77-.37,1.59-.37,2.48,0,.99.14,1.94.41,2.83.27.89.69,1.62,1.25,2.18.56.56,1.27.84,2.12.84Z"/>
    <path class="cls-1" d="m60.12,27c-.87,0-1.59-.16-2.18-.48-.58-.32-1.03-.87-1.32-1.64-.3-.77-.45-1.81-.45-3.13v-4.28c0-.26,0-.51.01-.77,0-.26.04-.52.08-.79-.27.02-.55.03-.83.04s-.56.02-.83.04v-.99h.75c.69,0,1.19-.07,1.5-.2.31-.14.56-.29.73-.45h.7v7.34c0,1.38.2,2.41.59,3.09s1.06,1.01,2.01,1c.61-.02,1.19-.2,1.74-.56.55-.36,1-.79,1.33-1.29v-6.18c0-.38,0-.72.02-1,.02-.28.05-.56.1-.83-.29.02-.58.03-.87.04-.29,0-.58.02-.87.04v-.99h.75c.69,0,1.19-.07,1.5-.2s.56-.29.73-.45h.7l-.02,9.09c0,.26,0,.62-.02,1.08-.02.47-.04.86-.07,1.18.29-.02.58-.03.87-.05s.58-.03.87-.05v1.01h-3.44c-.05-.27-.08-.53-.11-.77-.02-.24-.04-.47-.06-.67-.5.5-1.1.93-1.8,1.29-.71.36-1.41.54-2.12.54Z"/>
    <path class="cls-1" d="m76,26.62v-.79c.61-.03,1.03-.17,1.25-.42s.35-.59.37-1.03c.02-.44.04-.94.04-1.5v-10.39c0-.32,0-.63.02-.93s.03-.57.05-.81c-.29.02-.58.03-.87.05-.29.02-.58.03-.87.05v-1.06h5.41v.79c-.59.02-1.01.15-1.24.41-.23.26-.36.6-.38,1.03-.02.43-.04.94-.04,1.52v3.94h1.8l3.01-4.74c.21-.32.47-.67.77-1.06s.62-.71.94-.96c-.24.02-.49.02-.73.02s-.49,0-.73.02v-.99h5.17v.79c-.67.05-1.27.16-1.8.34s-1.03.49-1.52.93-.99,1.1-1.54,1.98l-2.36,3.75c.47.27.84.59,1.13.95.29.36.58.73.87,1.09l2.69,3.58c.61.8,1.11,1.39,1.5,1.77.39.38.74.61,1.06.71.31.1.64.14.97.14v.79h-2.93c-.16,0-.37-.11-.64-.34-.26-.22-.55-.52-.85-.88-.31-.36-.62-.74-.94-1.14l-2.89-3.9c-.31-.4-.61-.78-.91-1.14-.31-.36-.6-.63-.89-.81l-1.18.02v5.31c0,.43,0,.81-.01,1.12,0,.31-.03.57-.06.78.29-.02.58-.03.87-.05s.58-.03.87-.05v1.06h-5.41Z"/>
    <path class="cls-1" d="m99.88,25.89c.5,0,.84-.12,1.03-.37.19-.25.3-.59.34-1.03.03-.44.05-.95.05-1.53v-3.37c0-1.38-.22-2.41-.66-3.1s-1.13-1.03-2.08-1.01c-.59.02-1.17.16-1.74.43s-1.03.63-1.38,1.06v7.09c0,.32,0,.61-.02.85s-.05.51-.1.78c.26-.02.51-.03.76-.04.25,0,.5-.02.76-.04v.99h-4.91v-.72c.5,0,.84-.12,1.03-.37.19-.25.31-.59.35-1.03.04-.44.06-.95.06-1.53v-11.37c0-.26,0-.5.01-.73s.03-.51.06-.83c-.29.02-.57.03-.85.05-.28.02-.56.03-.85.05v-1.01c.71,0,1.25-.03,1.65-.1.39-.06.69-.14.89-.24.2-.1.36-.2.47-.31h.7v7.34c.35-.3.75-.57,1.19-.81s.9-.42,1.37-.57.93-.22,1.38-.22c1.4,0,2.4.44,3.02,1.31s.93,2.23.95,4.08l.02,4.47c0,.32,0,.61-.01.85s-.04.51-.08.78c.26-.02.51-.03.76-.04s.5-.02.76-.04v.99h-4.91v-.72Z"/>
    <path class="cls-1" d="m113.87,26.62c-.05-.27-.08-.51-.1-.72s-.04-.42-.07-.65c-.55.55-1.14.97-1.77,1.29-.63.31-1.3.47-2.01.47-1.22,0-2.12-.28-2.72-.83-.59-.55-.89-1.23-.89-2.03,0-.74.23-1.37.69-1.91.46-.54,1.05-.98,1.78-1.32s1.52-.6,2.38-.77c.86-.17,1.69-.24,2.49-.23v-1.49c0-.56-.05-1.09-.14-1.59s-.31-.91-.63-1.23c-.32-.32-.83-.49-1.54-.5-.46-.02-.94.07-1.43.26s-.85.52-1.07.99c.13.13.21.28.25.45.04.17.06.32.06.47,0,.19-.08.41-.24.66-.16.25-.44.37-.84.35-.34,0-.59-.12-.77-.35-.18-.23-.27-.51-.27-.83,0-.54.2-1.03.61-1.47.41-.43.97-.78,1.7-1.03s1.54-.38,2.45-.38c1.35,0,2.34.36,2.98,1.07.64.71.95,1.84.94,3.38v1.79c0,.6,0,1.2-.01,1.8,0,.6-.01,1.21-.01,1.82,0,.26,0,.51-.02.77s-.04.54-.07.87c.29-.02.57-.03.85-.05s.56-.03.85-.05v1.01h-3.44Zm-.22-5.89c-.55.02-1.12.08-1.72.2-.6.12-1.15.3-1.66.54-.51.24-.91.56-1.23.95-.31.39-.46.87-.45,1.43.03.59.23,1.04.59,1.34.36.3.79.44,1.29.44.66,0,1.23-.12,1.72-.37.49-.25.97-.6,1.45-1.05-.02-.18-.02-.37-.02-.58v-.65c0-.08,0-.34.01-.77s.01-.93.01-1.49Z"/>
    <path class="cls-1" d="m118.73,25.89c.5,0,.84-.12,1.03-.37.19-.25.3-.59.34-1.03.03-.44.05-.95.05-1.53v-11.37c0-.26,0-.5.01-.73,0-.23.03-.51.06-.83-.29.02-.57.03-.85.05-.28.02-.56.03-.85.05v-1.01c.7,0,1.25-.03,1.65-.1.39-.06.69-.14.89-.24s.36-.2.47-.31h.7l.02,15.61c0,.32,0,.61-.02.85s-.05.51-.1.78c.26-.02.51-.03.76-.04.25,0,.5-.02.76-.04v.99h-4.91v-.72Z"/>
    <path class="cls-1" d="m125.51,25.89c.5,0,.84-.12,1.03-.37.19-.25.3-.59.34-1.03.03-.44.05-.95.05-1.53v-5.48c0-.26,0-.5.02-.73.02-.23.04-.51.07-.83-.29.02-.57.03-.85.05-.28.02-.57.03-.85.05v-1.01c.71,0,1.25-.03,1.64-.1.38-.06.68-.14.88-.24.2-.1.36-.2.47-.31h.7v9.72c0,.32,0,.61-.01.85,0,.25-.04.51-.08.78.26-.02.51-.03.76-.04.25,0,.5-.02.76-.04v.99h-4.91v-.72Zm2.31-13.92c-.34,0-.63-.14-.89-.41-.26-.27-.38-.61-.38-1.01s.13-.74.4-1.02c.26-.28.56-.42.9-.42.37,0,.68.14.93.42.25.28.37.62.37,1.02s-.13.74-.4,1.01c-.26.27-.57.41-.92.41Z"/>
    <path class="cls-1" d="m132.03,25.89c.5,0,.84-.12,1.03-.37.19-.25.3-.59.34-1.03.03-.44.05-.95.05-1.53v-11.37c0-.26,0-.5.01-.73,0-.23.03-.51.06-.83-.29.02-.57.03-.85.05-.28.02-.56.03-.85.05v-1.01c.7,0,1.25-.03,1.65-.1.39-.06.69-.14.89-.24s.36-.2.47-.31h.7l.02,15.61c0,.32,0,.61-.02.85s-.05.51-.1.78c.26-.02.51-.03.76-.04.25,0,.5-.02.76-.04v.99h-4.91v-.72Z"/>
  </g>
  <g>
    <path class="cls-1" d="m50.49,48.89c-.53,0-1.01-.09-1.44-.28-.43-.18-.81-.45-1.12-.81-.31-.36-.55-.79-.72-1.31s-.26-1.11-.26-1.78.08-1.24.25-1.76c.17-.52.41-.96.72-1.31.31-.36.68-.63,1.12-.82.43-.19.92-.28,1.45-.28.38,0,.74.05,1.07.15.33.1.62.25.88.45.26.2.47.44.65.74.17.29.3.63.36,1h-.8c-.03-.25-.11-.46-.23-.66-.12-.19-.28-.35-.47-.48s-.41-.23-.66-.29c-.25-.06-.52-.1-.81-.1-.4,0-.77.07-1.11.21-.33.14-.62.35-.86.63s-.42.63-.55,1.05c-.13.42-.2.91-.2,1.46s.06,1.05.2,1.47c.13.42.31.77.55,1.05s.53.49.86.63c.33.14.7.21,1.11.21.27,0,.52-.03.77-.1.25-.06.47-.16.66-.29.2-.13.36-.28.49-.47.13-.19.21-.41.25-.66h.8c-.08.38-.2.72-.37,1.01-.17.29-.39.54-.65.73-.26.2-.55.35-.88.45-.33.1-.69.15-1.06.15Z"/>
    <path class="cls-1" d="m58.44,48.89c-.55,0-1.06-.09-1.51-.28-.45-.19-.84-.46-1.16-.82-.33-.36-.58-.8-.75-1.32s-.27-1.11-.27-1.77.08-1.22.26-1.74c.17-.52.41-.95.73-1.31.31-.36.69-.63,1.12-.83.43-.19.91-.29,1.44-.29s1.03.1,1.47.29c.44.19.81.47,1.12.83.31.36.54.8.71,1.31.16.52.25,1.1.25,1.75v.18h-6.25c.04.54.14,1.01.3,1.41s.36.73.62.99c.25.26.55.46.88.59.33.13.69.2,1.08.2.27,0,.55-.03.82-.1.27-.06.52-.16.74-.29.22-.13.41-.29.56-.48.15-.19.24-.41.27-.66h.81c-.08.38-.21.71-.4,1-.19.29-.43.54-.71.74-.28.2-.6.35-.95.46-.36.1-.74.15-1.14.15Zm2.55-4.82c-.14-.91-.45-1.59-.93-2.04-.48-.45-1.08-.68-1.78-.68-.35,0-.67.06-.97.16-.3.11-.57.28-.8.5-.24.23-.43.51-.59.85-.16.34-.28.74-.34,1.2h5.42Z"/>
    <path class="cls-1" d="m67.61,41.37c-.08-.01-.16-.02-.25-.02h-.3c-.23,0-.46.05-.68.14s-.43.22-.63.37c-.2.15-.38.33-.55.52-.17.2-.32.39-.44.6v5.69h-.82v-7.95h.82v1.1c.23-.27.46-.5.69-.67.23-.17.45-.3.67-.4.22-.1.42-.16.62-.19.2-.03.38-.05.54-.05.05,0,.11,0,.15,0,.05,0,.1,0,.16.02v.82Z"/>
    <path class="cls-1" d="m74.38,47.66c-.28.25-.55.45-.82.61-.27.16-.53.29-.78.38-.26.09-.51.16-.76.19-.25.03-.51.05-.77.05-.35,0-.67-.05-.97-.16-.3-.11-.56-.26-.78-.45-.22-.19-.39-.43-.52-.71-.13-.28-.19-.58-.19-.92,0-.91.39-1.62,1.16-2.12.78-.51,1.94-.76,3.49-.76h.94c0-.35-.02-.67-.06-.96s-.14-.55-.29-.76c-.15-.21-.37-.38-.67-.51s-.69-.19-1.2-.19c-.75,0-1.3.12-1.68.35-.37.23-.59.58-.66,1.06h-.81c.08-.75.38-1.31.88-1.68.5-.37,1.26-.55,2.26-.55.55,0,1.02.07,1.41.21.39.14.7.33.94.59.24.26.42.57.53.93.11.37.16.78.16,1.24v5.19h-.82v-1.03Zm0-3.07h-1.24c-1.19,0-2.08.17-2.66.51-.58.34-.88.83-.88,1.47,0,.47.18.84.55,1.1.37.26.88.39,1.52.39.28,0,.55-.04.82-.13.26-.09.51-.2.74-.33s.45-.29.64-.46c.2-.17.36-.33.51-.49v-2.07Z"/>
    <path class="cls-1" d="m88.39,48.68h-.82v-5.19c0-.76-.12-1.31-.35-1.64-.24-.33-.65-.5-1.25-.5-.44,0-.86.14-1.28.41-.41.27-.82.65-1.21,1.14v5.78h-.82v-5.19c0-.38-.03-.7-.08-.97-.05-.27-.14-.5-.26-.67s-.29-.3-.49-.38c-.2-.08-.45-.12-.74-.12-.43,0-.84.14-1.23.41-.39.27-.78.65-1.18,1.14v5.78h-.82v-7.95h.82v1.18c.27-.31.53-.55.77-.73.24-.18.47-.32.69-.42.22-.1.42-.16.62-.19.2-.03.38-.05.56-.05.51,0,.95.12,1.31.36.36.24.62.61.79,1.1.21-.29.42-.53.65-.71.23-.19.46-.34.7-.45.24-.11.47-.19.71-.23.24-.04.47-.07.7-.07,1.47,0,2.21.96,2.21,2.89v5.26Z"/>
    <path class="cls-1" d="m91.87,48.68h-.82v-7.95h.82v7.95Zm.01-9.95h-.82v-1.28h.82v1.28Z"/>
    <path class="cls-1" d="m97.61,48.89c-.53,0-1.01-.09-1.44-.28-.43-.18-.81-.45-1.12-.81-.31-.36-.55-.79-.72-1.31s-.26-1.11-.26-1.78.08-1.24.25-1.76c.17-.52.41-.96.72-1.31.31-.36.68-.63,1.12-.82.43-.19.92-.28,1.45-.28.38,0,.74.05,1.07.15.33.1.62.25.88.45.26.2.47.44.65.74.17.29.3.63.36,1h-.8c-.03-.25-.11-.46-.23-.66-.12-.19-.28-.35-.47-.48s-.41-.23-.66-.29c-.25-.06-.52-.1-.81-.1-.4,0-.77.07-1.11.21-.33.14-.62.35-.86.63s-.42.63-.55,1.05c-.13.42-.2.91-.2,1.46s.06,1.05.2,1.47c.13.42.31.77.55,1.05s.53.49.86.63c.33.14.7.21,1.11.21.27,0,.52-.03.77-.1.25-.06.47-.16.66-.29.2-.13.36-.28.49-.47.13-.19.21-.41.25-.66h.8c-.08.38-.2.72-.37,1.01-.17.29-.39.54-.65.73-.26.2-.55.35-.88.45-.33.1-.69.15-1.06.15Z"/>
  </g>
</svg>