<?xml version="1.0" encoding="UTF-8"?>
<svg id="Layer_1" data-name="Layer 1" xmlns="http://www.w3.org/2000/svg" viewBox="0 0 44 43">
  <defs>
    <style>
      .cls-1 {
        fill: #f9e077;
      }
    </style>
  </defs>
  <path class="cls-1" d="m8.19,21.55c-.32-2.23-2.1-4-4.36-4.29.32,2.23,2.1,4,4.36,4.29Z"/>
  <path class="cls-1" d="m12.59,25.89c-.32-2.23-2.1-4-4.36-4.29.32,2.23,2.1,4,4.36,4.29Z"/>
  <path class="cls-1" d="m8.26,21.55c2.23-.32,4-2.1,4.29-4.36-2.23.32-4,2.1-4.29,4.36Z"/>
  <path class="cls-1" d="m3.92,25.95c2.23-.32,4-2.1,4.29-4.36-2.23.32-4,2.1-4.29,4.36Z"/>
  <path class="cls-1" d="m16.94,21.5c-.32-2.23-2.1-4-4.36-4.29.32,2.23,2.1,4,4.36,4.29Z"/>
  <path class="cls-1" d="m21.34,25.84c-.32-2.23-2.1-4-4.36-4.29.32,2.23,2.1,4,4.36,4.29Z"/>
  <path class="cls-1" d="m17.01,21.5c2.23-.32,4-2.1,4.29-4.36-2.23.32-4,2.1-4.29,4.36Z"/>
  <path class="cls-1" d="m12.66,25.9c2.23-.32,4-2.1,4.29-4.36-2.23.32-4,2.1-4.29,4.36Z"/>
  <path class="cls-1" d="m25.67,21.43c-.32-2.23-2.1-4-4.36-4.29.32,2.23,2.1,4,4.36,4.29Z"/>
  <path class="cls-1" d="m30.07,25.77c-.32-2.23-2.1-4-4.36-4.29.32,2.23,2.1,4,4.36,4.29Z"/>
  <path class="cls-1" d="m25.74,21.43c2.23-.32,4-2.1,4.29-4.36-2.23.32-4,2.1-4.29,4.36Z"/>
  <path class="cls-1" d="m21.4,25.83c2.23-.32,4-2.1,4.29-4.36-2.23.32-4,2.1-4.29,4.36Z"/>
  <path class="cls-1" d="m34.76,21.38c-.32-2.23-2.1-4-4.36-4.29.32,2.23,2.1,4,4.36,4.29Z"/>
  <path class="cls-1" d="m39.16,25.73c-.32-2.23-2.1-4-4.36-4.29.32,2.23,2.1,4,4.36,4.29Z"/>
  <path class="cls-1" d="m34.83,21.38c2.23-.32,4-2.1,4.29-4.36-2.23.32-4,2.1-4.29,4.36Z"/>
  <path class="cls-1" d="m30.49,25.79c2.23-.32,4-2.1,4.29-4.36-2.23.32-4,2.1-4.29,4.36Z"/>
  <path class="cls-1" d="m16.94,12.76c-.32-2.23-2.1-4-4.36-4.29.32,2.23,2.1,4,4.36,4.29Z"/>
  <path class="cls-1" d="m21.34,17.1c-.32-2.23-2.1-4-4.36-4.29.32,2.23,2.1,4,4.36,4.29Z"/>
  <path class="cls-1" d="m17.01,12.76c2.23-.32,4-2.1,4.29-4.36-2.23.32-4,2.1-4.29,4.36Z"/>
  <path class="cls-1" d="m12.66,17.16c2.23-.32,4-2.1,4.29-4.36-2.23.32-4,2.1-4.29,4.36Z"/>
  <path class="cls-1" d="m25.67,12.69c-.32-2.23-2.1-4-4.36-4.29.32,2.23,2.1,4,4.36,4.29Z"/>
  <path class="cls-1" d="m30.07,17.04c-.32-2.23-2.1-4-4.36-4.29.32,2.23,2.1,4,4.36,4.29Z"/>
  <path class="cls-1" d="m25.74,12.69c2.23-.32,4-2.1,4.29-4.36-2.23.32-4,2.1-4.29,4.36Z"/>
  <path class="cls-1" d="m21.4,17.1c2.23-.32,4-2.1,4.29-4.36-2.23.32-4,2.1-4.29,4.36Z"/>
  <path class="cls-1" d="m21.34,8.37c-.32-2.23-2.1-4-4.36-4.29.32,2.23,2.1,4,4.36,4.29Z"/>
  <path class="cls-1" d="m21.4,8.36c2.23-.32,4-2.1,4.29-4.36-2.23.32-4,2.1-4.29,4.36Z"/>
  <path class="cls-1" d="m16.94,30.24c-.32,2.23-2.1,4-4.36,4.29.32-2.23,2.1-4,4.36-4.29Z"/>
  <path class="cls-1" d="m21.34,25.9c-.32,2.23-2.1,4-4.36,4.29.32-2.23,2.1-4,4.36-4.29Z"/>
  <path class="cls-1" d="m17.01,30.24c2.23.32,4,2.1,4.29,4.36-2.23-.32-4-2.1-4.29-4.36Z"/>
  <path class="cls-1" d="m12.66,25.84c2.23.32,4,2.1,4.29,4.36-2.23-.32-4-2.1-4.29-4.36Z"/>
  <path class="cls-1" d="m25.67,30.31c-.32,2.23-2.1,4-4.36,4.29.32-2.23,2.1-4,4.36-4.29Z"/>
  <path class="cls-1" d="m30.07,25.96c-.32,2.23-2.1,4-4.36,4.29.32-2.23,2.1-4,4.36-4.29Z"/>
  <path class="cls-1" d="m25.74,30.31c2.23.32,4,2.1,4.29,4.36-2.23-.32-4-2.1-4.29-4.36Z"/>
  <path class="cls-1" d="m21.4,25.9c2.23.32,4,2.1,4.29,4.36-2.23-.32-4-2.1-4.29-4.36Z"/>
  <path class="cls-1" d="m21.34,34.63c-.32,2.23-2.1,4-4.36,4.29.32-2.23,2.1-4,4.36-4.29Z"/>
  <path class="cls-1" d="m21.4,34.64c2.23.32,4,2.1,4.29,4.36-2.23-.32-4-2.1-4.29-4.36Z"/>
</svg>